HIERARCHY
ROOT mixamorig:Hips
{
	OFFSET 0.000000 104.274902 0.000000
	CHANNELS 6 Xposition Yposition Zposition Xrotation Yrotation Zrotation
	JOINT mixamorig:Spine
	{
		OFFSET 0.000000 10.181549 0.131524
		CHANNELS 6 Xposition Yposition Zposition Xrotation Yrotation Zrotation
		JOINT mixamorig:Spine1
		{
			OFFSET 0.000000 9.893990 -1.470706
			CHANNELS 3 Xrotation Yrotation Zrotation
			JOINT mixamorig:Spine2
			{
				OFFSET 0.000000 9.220787 -1.370637
				CHANNELS 3 Xrotation Yrotation Zrotation
				JOINT mixamorig:Neck
				{
					OFFSET 0.000000 16.740372 -2.049022
					CHANNELS 6 Xposition Yposition Zposition Xrotation Yrotation Zrotation
					JOINT mixamorig:Head
					{
						OFFSET 0.000000 9.617859 1.684976
						CHANNELS 6 Xposition Yposition Zposition Xrotation Yrotation Zrotation
						JOINT mixamorig:HeadTop_End
						{
							OFFSET 0.000000 22.037384 7.501072
							CHANNELS 6 Xposition Yposition Zposition Xrotation Yrotation Zrotation
							End Site
							{
								OFFSET 0.000000 23.106567 -2.828246
							}
						}
					}
				}
				JOINT mixamorig:RightShoulder
				{
					OFFSET -4.570000 11.014877 -2.160840
					CHANNELS 6 Xposition Yposition Zposition Xrotation Yrotation Zrotation
					JOINT mixamorig:RightArm
					{
						OFFSET -10.592867 -0.524796 -2.232105
						CHANNELS 3 Xrotation Yrotation Zrotation
						JOINT mixamorig:RightForeArm
						{
							OFFSET -27.841497 0.000000 -0.000002
							CHANNELS 3 Xrotation Yrotation Zrotation
							JOINT mixamorig:RightHand
							{
								OFFSET -28.328812 0.000000 -0.000001
								CHANNELS 3 Xrotation Yrotation Zrotation
								JOINT mixamorig:RightHandThumb1
								{
									OFFSET -2.464798 -1.573990 2.681911
									CHANNELS 6 Xposition Yposition Zposition Xrotation Yrotation Zrotation
									JOINT mixamorig:RightHandThumb2
									{
										OFFSET -3.244781 -1.873383 1.873376
										CHANNELS 3 Xrotation Yrotation Zrotation
										JOINT mixamorig:RightHandThumb3
										{
											OFFSET -2.646263 -1.527817 1.527818
											CHANNELS 6 Xposition Yposition Zposition Xrotation Yrotation Zrotation
											JOINT mixamorig:RightHandThumb4
											{
												OFFSET -1.994591 -1.151581 1.151575
												CHANNELS 6 Xposition Yposition Zposition Xrotation Yrotation Zrotation
												End Site
												{
													OFFSET -1.860176 -1.142715 1.365483
												}
											}
										}
									}
								}
								JOINT mixamorig:RightHandIndex1
								{
									OFFSET -9.108299 -0.517883 2.259803
									CHANNELS 6 Xposition Yposition Zposition Xrotation Yrotation Zrotation
									JOINT mixamorig:RightHandIndex2
									{
										OFFSET -3.699997 0.000000 0.000000
										CHANNELS 3 Xrotation Yrotation Zrotation
										JOINT mixamorig:RightHandIndex3
										{
											OFFSET -2.850006 0.000000 0.000000
											CHANNELS 3 Xrotation Yrotation Zrotation
											JOINT mixamorig:RightHandIndex4
											{
												OFFSET -2.772194 0.000000 0.000000
												CHANNELS 3 Xrotation Yrotation Zrotation
												End Site
												{
													OFFSET -2.772202 0.000000 -0.000484
												}
											}
										}
									}
								}
								JOINT mixamorig:RightHandMiddle1
								{
									OFFSET -9.532501 0.000000 -0.000000
									CHANNELS 6 Xposition Yposition Zposition Xrotation Yrotation Zrotation
									JOINT mixamorig:RightHandMiddle2
									{
										OFFSET -3.699997 0.000000 0.000000
										CHANNELS 3 Xrotation Yrotation Zrotation
										JOINT mixamorig:RightHandMiddle3
										{
											OFFSET -2.949997 0.000000 0.000000
											CHANNELS 3 Xrotation Yrotation Zrotation
											JOINT mixamorig:RightHandMiddle4
											{
												OFFSET -2.946594 0.000000 0.000000
												CHANNELS 3 Xrotation Yrotation Zrotation
												End Site
												{
													OFFSET -2.946602 0.000000 -0.000982
												}
											}
										}
									}
								}
								JOINT mixamorig:RightHandRing1
								{
									OFFSET -9.103600 -0.043106 -1.865100
									CHANNELS 6 Xposition Yposition Zposition Xrotation Yrotation Zrotation
									JOINT mixamorig:RightHandRing2
									{
										OFFSET -3.379303 0.000000 0.000000
										CHANNELS 3 Xrotation Yrotation Zrotation
										JOINT mixamorig:RightHandRing3
										{
											OFFSET -2.889694 0.000000 0.000000
											CHANNELS 3 Xrotation Yrotation Zrotation
											JOINT mixamorig:RightHandRing4
											{
												OFFSET -2.638802 0.000000 0.000000
												CHANNELS 3 Xrotation Yrotation Zrotation
												End Site
												{
													OFFSET -2.638802 0.000000 0.004218
												}
											}
										}
									}
								}
								JOINT mixamorig:RightHandPinky1
								{
									OFFSET -8.076698 -0.486725 -3.806299
									CHANNELS 6 Xposition Yposition Zposition Xrotation Yrotation Zrotation
									JOINT mixamorig:RightHandPinky2
									{
										OFFSET -3.600006 0.000000 0.000000
										CHANNELS 3 Xrotation Yrotation Zrotation
										JOINT mixamorig:RightHandPinky3
										{
											OFFSET -2.099998 0.000000 0.000000
											CHANNELS 3 Xrotation Yrotation Zrotation
											JOINT mixamorig:RightHandPinky4
											{
												OFFSET -2.115791 0.000000 0.000000
												CHANNELS 3 Xrotation Yrotation Zrotation
												End Site
												{
													OFFSET -2.115799 0.000000 0.000174
												}
											}
										}
									}
								}
							}
						}
					}
				}
				JOINT mixamorig:LeftShoulder
				{
					OFFSET 4.570400 11.014679 -2.160816
					CHANNELS 6 Xposition Yposition Zposition Xrotation Yrotation Zrotation
					JOINT mixamorig:LeftArm
					{
						OFFSET 10.592373 -0.524597 -2.232116
						CHANNELS 3 Xrotation Yrotation Zrotation
						JOINT mixamorig:LeftForeArm
						{
							OFFSET 27.841488 0.000000 0.000001
							CHANNELS 3 Xrotation Yrotation Zrotation
							JOINT mixamorig:LeftHand
							{
								OFFSET 28.328808 0.000000 -0.000000
								CHANNELS 3 Xrotation Yrotation Zrotation
								JOINT mixamorig:LeftHandThumb1
								{
									OFFSET 2.466103 -1.576202 2.681698
									CHANNELS 6 Xposition Yposition Zposition Xrotation Yrotation Zrotation
									JOINT mixamorig:LeftHandThumb2
									{
										OFFSET 3.243317 -1.872528 1.872530
										CHANNELS 3 Xrotation Yrotation Zrotation
										JOINT mixamorig:LeftHandThumb3
										{
											OFFSET 2.647881 -1.528763 1.528754
											CHANNELS 6 Xposition Yposition Zposition Xrotation Yrotation Zrotation
											JOINT mixamorig:LeftHandThumb4
											{
												OFFSET 1.998924 -1.154083 1.154080
												CHANNELS 6 Xposition Yposition Zposition Xrotation Yrotation Zrotation
												End Site
												{
													OFFSET 1.884041 -1.149155 1.337651
												}
											}
										}
									}
								}
								JOINT mixamorig:LeftHandIndex1
								{
									OFFSET 9.109299 -0.518005 2.259900
									CHANNELS 6 Xposition Yposition Zposition Xrotation Yrotation Zrotation
									JOINT mixamorig:LeftHandIndex2
									{
										OFFSET 3.699997 0.000000 0.000000
										CHANNELS 3 Xrotation Yrotation Zrotation
										JOINT mixamorig:LeftHandIndex3
										{
											OFFSET 2.850006 0.000000 0.000000
											CHANNELS 3 Xrotation Yrotation Zrotation
											JOINT mixamorig:LeftHandIndex4
											{
												OFFSET 2.774895 0.000000 0.000000
												CHANNELS 3 Xrotation Yrotation Zrotation
												End Site
												{
													OFFSET 2.774902 0.000000 -0.000072
												}
											}
										}
									}
								}
								JOINT mixamorig:LeftHandMiddle1
								{
									OFFSET 9.533401 0.000000 0.000000
									CHANNELS 6 Xposition Yposition Zposition Xrotation Yrotation Zrotation
									JOINT mixamorig:LeftHandMiddle2
									{
										OFFSET 3.699997 0.000000 0.000000
										CHANNELS 3 Xrotation Yrotation Zrotation
										JOINT mixamorig:LeftHandMiddle3
										{
											OFFSET 2.949997 0.000000 0.000000
											CHANNELS 3 Xrotation Yrotation Zrotation
											JOINT mixamorig:LeftHandMiddle4
											{
												OFFSET 2.952896 0.000000 0.000000
												CHANNELS 3 Xrotation Yrotation Zrotation
												End Site
												{
													OFFSET 2.952904 0.000000 0.000165
												}
											}
										}
									}
								}
								JOINT mixamorig:LeftHandRing1
								{
									OFFSET 9.104500 -0.042999 -1.865101
									CHANNELS 6 Xposition Yposition Zposition Xrotation Yrotation Zrotation
									JOINT mixamorig:LeftHandRing2
									{
										OFFSET 3.149994 0.000000 0.000000
										CHANNELS 3 Xrotation Yrotation Zrotation
										JOINT mixamorig:LeftHandRing3
										{
											OFFSET 2.950005 0.000000 0.000000
											CHANNELS 3 Xrotation Yrotation Zrotation
											JOINT mixamorig:LeftHandRing4
											{
												OFFSET 2.644302 0.000000 0.000000
												CHANNELS 3 Xrotation Yrotation Zrotation
												End Site
												{
													OFFSET 2.644302 0.000000 0.000083
												}
											}
										}
									}
								}
								JOINT mixamorig:LeftHandPinky1
								{
									OFFSET 8.077805 -0.486893 -3.806302
									CHANNELS 6 Xposition Yposition Zposition Xrotation Yrotation Zrotation
									JOINT mixamorig:LeftHandPinky2
									{
										OFFSET 3.600006 0.000000 0.000000
										CHANNELS 3 Xrotation Yrotation Zrotation
										JOINT mixamorig:LeftHandPinky3
										{
											OFFSET 2.099998 0.000000 0.000000
											CHANNELS 3 Xrotation Yrotation Zrotation
											JOINT mixamorig:LeftHandPinky4
											{
												OFFSET 2.125496 0.000000 0.000000
												CHANNELS 3 Xrotation Yrotation Zrotation
												End Site
												{
													OFFSET 2.125504 0.000000 -0.001254
												}
											}
										}
									}
								}
							}
						}
					}
				}
			}
		}
	}
	JOINT mixamorig:RightUpLeg
	{
		OFFSET -8.207800 -6.751701 -1.599544
		CHANNELS 6 Xposition Yposition Zposition Xrotation Yrotation Zrotation
		JOINT mixamorig:RightLeg
		{
			OFFSET 0.000004 -44.370152 0.345934
			CHANNELS 3 Xrotation Yrotation Zrotation
			JOINT mixamorig:RightFoot
			{
				OFFSET 0.000004 -44.423664 -3.043535
				CHANNELS 3 Xrotation Yrotation Zrotation
				JOINT mixamorig:RightToeBase
				{
					OFFSET 0.000001 -8.728691 10.710592
					CHANNELS 3 Xrotation Yrotation Zrotation
					JOINT mixamorig:RightToe_End
					{
						OFFSET 0.000000 -0.000665 9.278101
						CHANNELS 3 Xrotation Yrotation Zrotation
						End Site
						{
							OFFSET 0.000000 -0.000665 9.278103
						}
					}
				}
			}
		}
	}
	JOINT mixamorig:LeftUpLeg
	{
		OFFSET 8.207800 -6.751701 -1.599544
		CHANNELS 6 Xposition Yposition Zposition Xrotation Yrotation Zrotation
		JOINT mixamorig:LeftLeg
		{
			OFFSET 0.000004 -44.370037 0.346940
			CHANNELS 3 Xrotation Yrotation Zrotation
			JOINT mixamorig:LeftFoot
			{
				OFFSET 0.000004 -44.423611 -3.044388
				CHANNELS 3 Xrotation Yrotation Zrotation
				JOINT mixamorig:LeftToeBase
				{
					OFFSET 0.000001 -8.728690 10.710592
					CHANNELS 3 Xrotation Yrotation Zrotation
					JOINT mixamorig:LeftToe_End
					{
						OFFSET 0.000000 -0.000680 9.278101
						CHANNELS 3 Xrotation Yrotation Zrotation
						End Site
						{
							OFFSET 0.000000 -0.000680 9.278101
						}
					}
				}
			}
		}
	}
}
MOTION
Frames: 4
Frame Time: 0.033333
-0.194908 102.651390 2.664413 -7.788547 -3.566345 -0.563354 0.000000 10.181556 0.131524 -1.745114 1.481363 -0.860702 -0.440216 0.431156 -0.417340 -0.438162 0.433026 -0.416986 -0.000000 16.740360 -2.049025 4.588098 -1.279273 -0.901524 -0.000001 9.617854 1.684978 14.874803 -8.347114 4.930232 -0.000000 22.037354 7.501075 -0.000000 -0.000001 0.000000 -4.570002 11.014894 -2.160841 1.645683 2.506468 10.026761 -33.914024 26.166801 66.153217 0.000188 114.040226 -0.000122 35.064419 34.943333 -19.881692 -2.464791 -1.573997 2.681911 -13.347926 -4.257363 8.681673 13.913700 -30.738833 1.911579 -2.646264 -1.527827 1.527825 16.318408 -41.323454 -0.684327 -1.994590 -1.151581 1.151571 0.000001 -0.000001 -0.000000 -9.108278 -0.517883 2.259815 15.167873 -19.208054 42.384794 6.629860 -6.940981 87.367299 1.264895 -4.003789 35.053323 0.000002 -0.000002 -0.000002 -9.532497 0.000025 0.000004 17.138391 -12.100275 66.177191 6.205786 -6.908647 83.851111 0.870948 -3.374461 28.936254 0.000002 0.000000 0.000000 -9.103566 -0.043100 -1.865084 15.512369 -9.814636 73.325940 4.772701 -6.600458 71.711659 3.792036 -6.193159 62.926840 0.000000 -0.000004 0.000002 -8.076694 -0.486714 -3.806288 10.826000 -8.120439 75.991565 4.657783 -6.561612 70.709028 2.042599 -4.926674 45.017326 -0.000000 -0.000002 -0.000000 4.570398 11.014674 -2.160818 0.834481 0.646682 -10.394530 27.982636 -50.875624 -26.774101 -0.000064 -101.018764 -0.000086 -32.355945 1.732765 -36.379234 2.466110 -1.576204 2.681688 1.080960 10.617970 16.225785 5.487313 14.757769 -0.529094 2.647908 -1.528765 1.528741 -2.074743 -3.828200 3.516738 1.998918 -1.154067 1.154086 -0.000000 0.000001 -0.000004 9.109308 -0.518011 2.259899 -0.021356 0.131039 -5.739186 0.431556 2.403761 -20.355297 0.000657 0.095974 -0.795324 0.000001 0.000001 0.000003 9.533408 0.000004 -0.000005 0.156761 1.492097 -14.850027 0.710171 3.050551 -26.205585 0.030749 0.651433 -5.406169 0.000001 -0.000001 -0.000003 9.104499 -0.043003 -1.865109 0.917019 3.581711 -22.560492 1.303472 4.036387 -35.782975 0.216718 1.717329 -14.385058 -0.000000 -0.000001 0.000001 8.077803 -0.486887 -3.806298 2.131248 7.540219 -18.022255 1.342747 0.004955 -36.545200 0.295668 1.999892 -16.818825 0.000000 0.000001 0.000001 -8.207803 -6.751709 -1.599544 0.752920 -13.153203 -5.929757 15.950061 -10.007658 -1.800421 -6.474522 -12.763028 7.849937 0.000008 0.000003 -0.000004 -0.000000 0.000000 0.000000 8.207799 -6.751699 -1.599543 -0.653083 17.205919 8.552678 16.296621 9.806624 0.025662 -5.819015 10.025826 -7.362693 -0.219234 -0.000002 -0.000001 0.000000 0.000000 0.000000 
-0.046192 102.592812 2.659513 -7.812008 -3.363808 -0.696544 -0.000000 10.181570 0.131525 -1.602042 1.459950 -0.780957 -0.393470 0.428949 -0.404995 -0.391463 0.430784 -0.404435 -0.000000 16.740355 -2.049022 4.715314 -1.322072 -0.955451 0.000001 9.617874 1.684972 13.972340 -8.730139 5.157110 0.000000 22.037384 7.501070 0.000000 0.000001 -0.000000 -4.569999 11.014860 -2.160840 1.641657 2.500103 10.010549 -34.146677 25.911246 66.186903 0.000204 114.103597 -0.000148 34.811183 34.782779 -19.661582 -2.464796 -1.573982 2.681912 -13.347928 -4.257364 8.681675 13.913700 -30.738833 1.911571 -2.646271 -1.527825 1.527816 16.318401 -41.323454 -0.684331 -1.994575 -1.151579 1.151561 0.000002 -0.000000 -0.000000 -9.108282 -0.517872 2.259816 15.167871 -19.208054 42.384787 6.629855 -6.940982 87.367306 1.264895 -4.003794 35.053323 -0.000002 -0.000001 -0.000001 -9.532501 -0.000005 0.000006 17.138389 -12.100273 66.177191 6.205787 -6.908648 83.851111 0.870950 -3.374461 28.936260 -0.000001 0.000000 0.000001 -9.103600 -0.043104 -1.865082 15.512369 -9.814635 73.325933 4.772699 -6.600458 71.711659 3.792034 -6.193160 62.926833 0.000002 -0.000000 0.000001 -8.076714 -0.486714 -3.806292 10.825997 -8.120436 75.991565 4.657787 -6.561616 70.709028 2.042601 -4.926678 45.017329 -0.000005 0.000000 -0.000001 4.570401 11.014679 -2.160814 0.834296 0.631621 -10.377513 27.722076 -50.851680 -26.905990 0.000069 -101.182764 0.000039 -31.880950 1.806323 -36.295823 2.466108 -1.576195 2.681705 1.213297 10.923960 16.134478 5.507272 14.835234 -0.544665 2.647885 -1.528760 1.528745 -2.050107 -3.731317 3.499654 1.998925 -1.154084 1.154070 0.000002 -0.000001 -0.000000 9.109307 -0.518015 2.259912 -0.014372 0.250540 -6.332288 0.431576 2.403751 -20.355309 0.000517 0.085462 -0.708059 -0.000001 -0.000000 0.000003 9.533409 0.000004 0.000007 0.167495 1.542202 -15.370716 0.705340 3.040790 -26.115184 0.030977 0.653726 -5.425350 0.000000 0.000000 0.000001 9.104499 -0.043002 -1.865092 0.924171 3.583052 -22.915737 1.298801 4.029878 -35.716227 0.216838 1.717801 -14.389148 -0.000000 -0.000000 0.000001 8.077806 -0.486897 -3.806295 2.176264 7.577917 -18.332629 1.341465 0.003162 -36.527029 0.296543 2.002846 -16.844380 -0.000000 0.000001 0.000001 -8.207801 -6.751695 -1.599543 0.742294 -13.106010 -5.824890 16.122192 -9.923042 -1.848358 -6.520508 -12.984621 7.957198 -0.003867 -0.000017 0.000003 -0.000000 0.000000 0.000000 8.207800 -6.751687 -1.599542 -1.015177 16.977639 8.650060 16.942884 9.788056 0.148754 -6.151915 10.019921 -7.395680 -0.222569 -0.000005 -0.000003 0.000000 0.000002 0.000000 
0.149338 102.498543 2.638494 -7.867855 -3.169580 -0.879581 -0.000000 10.181547 0.131524 -1.335869 1.434689 -0.649807 -0.307152 0.427631 -0.383248 -0.305227 0.429395 -0.382333 0.000000 16.740364 -2.049015 4.809944 -1.373423 -1.024974 -0.000001 9.617846 1.684968 13.149765 -9.178992 5.407592 0.000000 22.037354 7.501077 -0.000000 0.000000 -0.000000 -4.569998 11.014890 -2.160832 1.637040 2.492269 9.992378 -34.506765 25.622567 66.213001 0.000179 114.177288 -0.000108 34.525087 34.644427 -19.390680 -2.464813 -1.573999 2.681904 -13.347931 -4.257364 8.681673 13.913701 -30.738822 1.911577 -2.646243 -1.527825 1.527812 16.318403 -41.323454 -0.684328 -1.994571 -1.151602 1.151561 0.000003 0.000000 -0.000002 -9.108309 -0.517871 2.259801 15.167875 -19.208054 42.384787 6.629858 -6.940974 87.367299 1.264899 -4.003790 35.053323 0.000006 -0.000001 0.000000 -9.532503 0.000002 0.000002 17.138389 -12.100274 66.177191 6.205786 -6.908646 83.851111 0.870953 -3.374467 28.936254 0.000003 0.000002 -0.000000 -9.103608 -0.043112 -1.865090 15.512369 -9.814636 73.325940 4.772700 -6.600458 71.711659 3.792037 -6.193159 62.926833 0.000001 0.000001 -0.000000 -8.076711 -0.486714 -3.806297 10.825996 -8.120438 75.991565 4.657785 -6.561616 70.709028 2.042600 -4.926675 45.017326 -0.000004 0.000001 -0.000001 4.570403 11.014695 -2.160806 0.834530 0.608249 -10.358172 27.365839 -50.841811 -27.037336 0.000033 -101.395394 0.000021 -31.209235 1.739895 -36.228044 2.466108 -1.576206 2.681710 1.345721 11.228034 16.047014 5.527194 14.912304 -0.560179 2.647891 -1.528767 1.528751 -2.025750 -3.635762 3.482795 1.998917 -1.154084 1.154088 -0.000002 0.000000 -0.000000 9.109298 -0.518005 2.259907 -0.005957 0.366572 -6.911950 0.431574 2.403761 -20.355292 0.000403 0.074721 -0.619167 0.000000 -0.000001 -0.000003 9.533404 0.000000 0.000008 0.177718 1.588787 -15.873676 0.700416 3.030650 -26.021446 0.031170 0.655906 -5.443408 -0.000000 -0.000002 -0.000003 9.104501 -0.043001 -1.865088 0.930309 3.583336 -23.252518 1.293415 4.022439 -35.639985 0.216975 1.718356 -14.393859 -0.000000 0.000001 0.000001 8.077809 -0.486888 -3.806290 2.219239 7.615290 -18.621430 1.339859 0.001011 -36.504677 0.297412 2.005648 -16.868783 -0.000001 0.000001 0.000002 -8.207799 -6.751701 -1.599543 0.664486 -13.058659 -5.732293 16.483769 -9.821344 -1.884442 -6.635717 -13.200993 8.097990 -0.027456 -0.000000 0.000003 -0.000000 0.000000 -0.000000 8.207799 -6.751713 -1.599544 -1.500728 16.699071 8.803275 17.873196 9.797115 0.285875 -6.627821 10.001893 -7.443266 -0.219903 0.000005 0.000001 0.000000 0.000000 0.000000 
0.395384 102.348297 2.595181 -7.977672 -2.998319 -1.137487 -0.000000 10.181548 0.131524 -0.903945 1.409933 -0.440332 -0.168443 0.429282 -0.347365 -0.166675 0.430939 -0.345924 -0.000000 16.740366 -2.049024 4.830734 -1.427513 -1.096974 0.000003 9.617865 1.684973 12.613599 -9.630591 5.661956 0.000000 22.037384 7.501072 -0.000000 -0.000001 0.000000 -4.569999 11.014878 -2.160840 1.634350 2.487127 9.982490 -34.990007 25.345338 66.210269 0.000206 114.276824 -0.000148 34.254546 34.550857 -19.083091 -2.464798 -1.574009 2.681906 -13.347927 -4.257361 8.681672 13.913705 -30.738833 1.911576 -2.646280 -1.527816 1.527812 16.318405 -41.323454 -0.684337 -1.994594 -1.151583 1.151572 0.000002 -0.000002 -0.000002 -9.108290 -0.517875 2.259809 15.167875 -19.208056 42.384790 6.629858 -6.940980 87.367299 1.264894 -4.003791 35.053323 -0.000005 -0.000001 -0.000000 -9.532516 0.000010 -0.000004 17.138388 -12.100276 66.177191 6.205787 -6.908650 83.851111 0.870947 -3.374462 28.936257 0.000002 0.000001 -0.000000 -9.103630 -0.043100 -1.865104 15.512369 -9.814635 73.325933 4.772700 -6.600460 71.711659 3.792040 -6.193155 62.926833 0.000005 -0.000001 -0.000000 -8.076726 -0.486722 -3.806300 10.825997 -8.120438 75.991565 4.657783 -6.561617 70.709028 2.042598 -4.926676 45.017333 0.000001 -0.000001 -0.000001 4.570403 11.014677 -2.160817 0.835429 0.576210 -10.338903 26.969260 -50.916120 -27.050049 0.000007 -101.609220 0.000033 -30.454451 1.536578 -36.238224 2.466101 -1.576200 2.681690 1.475525 11.524903 15.966904 5.546728 14.987633 -0.575366 2.647867 -1.528765 1.528766 -2.002265 -3.543774 3.466538 1.998917 -1.154069 1.154074 0.000002 -0.000000 -0.000004 9.109305 -0.518007 2.259897 0.003449 0.475957 -7.462771 0.431575 2.403768 -20.355296 0.000300 0.063880 -0.529460 -0.000000 -0.000001 -0.000004 9.533407 0.000008 -0.000008 0.186884 1.629921 -16.343072 0.695264 3.020154 -25.924333 0.031373 0.657836 -5.459591 0.000001 -0.000001 0.000001 9.104501 -0.043004 -1.865104 0.935072 3.582208 -23.557990 1.287229 4.013786 -35.551462 0.217130 1.718991 -14.399299 -0.000000 0.000002 0.000001 8.077806 -0.486901 -3.806307 2.258640 7.651674 -18.875993 1.337879 -0.001661 -36.477127 0.298183 2.008247 -16.891116 -0.000001 -0.000000 0.000001 -8.207801 -6.751702 -1.599542 0.483280 -13.026930 -5.649469 17.140278 -9.719264 -1.912081 -6.861156 -13.391485 8.287842 -0.143357 -0.000021 0.000001 0.000000 -0.000002 0.000000 8.207800 -6.751703 -1.599542 -2.151145 16.359688 9.049253 19.205935 9.808844 0.424107 -7.303255 10.035369 -7.501773 -0.205257 -0.000002 -0.000001 -0.000000 0.000000 0.000000 
